# xmcd
#
# Track frame offsets:
#	150
#	11115
#	22962
#	34297
#	51326
#	62141
#	71498
#	81376
#	92183
#	102531
#	116960
#	128398
#	136753
#	148426
#	160428
#	169475
#	182628
#	194432
#	215281
#	228279
#	240316
#	251572
#	264798
#	275925
#	286530
#	298156
#	311691
#
# Disc length: 4325 seconds
#
# Revision: 0
# Processed by: cddbd v1.5PL3 Copyright (c) Steve Scherf et al.
# Submitted via: audiograbber 1.83.01
#
DISCID=9d10e31b
DTITLE=Various Artist - Mongueles Country Favorites
DYEAR=1900
DGENRE=Classic Country
TTITLE0=Freddie Hart - Easy Lovin'
TTITLE1=Marie Osmond - Paper Roses
TTITLE2=Sammi Smith - Help Me Make It Through The Night
TTITLE3=Ray Price - For The Good Times
TTITLE4=Conway Twitty - Hello Darlin'
TTITLE5=Tom T. Hall - I Love
TTITLE6=Conway Twitty - It's Only Make Believe
TTITLE7=Marty Robbins - Singin' The Blues
TTITLE8=Jim Reeves - He'll Have To Go
TTITLE9=Olivia Newton John - If You Love Me (Let Me Know)
TTITLE10=George Jones - She Thinks I Still Care
TTITLE11=Roger Miller - Dang Me
TTITLE12=Tammy Wynette - He Loves Me All The Way
TTITLE13=Charlie Rich - The Most Beautiful Girl
TTITLE14=Charlie Pride - Kiss An Angel Good Mornin'
TTITLE15=Charlie Rich - Behind Closed Doors
TTITLE16=Eddie Arnold - Make The World Go Away
TTITLE17=Marty Robbins - El Paso
TTITLE18=Hank Williams - Hey Good Lookin'
TTITLE19=Hank Williams - Your Cheatin' Heart
TTITLE20=Don Gibson - Oh Lonesome Me
TTITLE21=Ray Price - Heartaches By The Number
TTITLE22=Marty Robbins - A White Sport Coat
TTITLE23=Faron Young - Hello Walls
TTITLE24=Johnny Cash - Ring Of Fire
TTITLE25=Sonny James - It's The Little Things
TTITLE26=The Browns - Three Bells
EXTD=
EXTT0=
EXTT1=
EXTT2=
EXTT3=
EXTT4=
EXTT5=
EXTT6=
EXTT7=
EXTT8=
EXTT9=
EXTT10=
EXTT11=
EXTT12=
EXTT13=
EXTT14=
EXTT15=
EXTT16=
EXTT17=
EXTT18=
EXTT19=
EXTT20=
EXTT21=
EXTT22=
EXTT23=
EXTT24=
EXTT25=
EXTT26=
PLAYORDER=
